<?xml version="1.0" encoding="UTF-8" standalone="no"?>
<!-- Created with Inkscape (http://www.inkscape.org/) -->

<svg
   width="2048"
   height="2048"
   viewBox="0 0 541.86667 541.86667"
   version="1.1"
   id="svg5"
   sodipodi:docname="logo.svg"
   inkscape:version="1.2.2 (b0a8486541, 2022-12-01)"
   inkscape:export-filename="logo.png"
   inkscape:export-xdpi="96"
   inkscape:export-ydpi="96"
   xmlns:inkscape="http://www.inkscape.org/namespaces/inkscape"
   xmlns:sodipodi="http://sodipodi.sourceforge.net/DTD/sodipodi-0.dtd"
   xmlns="http://www.w3.org/2000/svg"
   xmlns:svg="http://www.w3.org/2000/svg">
  <sodipodi:namedview
     id="namedview7"
     pagecolor="#ffffff"
     bordercolor="#000000"
     borderopacity="0.25"
     inkscape:showpageshadow="2"
     inkscape:pageopacity="0.0"
     inkscape:pagecheckerboard="0"
     inkscape:deskcolor="#d1d1d1"
     inkscape:document-units="mm"
     showgrid="false"
     inkscape:zoom="0.35355339"
     inkscape:cx="540.22958"
     inkscape:cy="1032.3759"
     inkscape:window-width="1920"
     inkscape:window-height="1011"
     inkscape:window-x="0"
     inkscape:window-y="32"
     inkscape:window-maximized="1"
     inkscape:current-layer="layer3" />
  <defs
     id="defs2">
    <inkscape:perspective
       sodipodi:type="inkscape:persp3d"
       inkscape:vp_x="38.659663 : 404.55433 : 1"
       inkscape:vp_y="0 : 1000 : 0"
       inkscape:vp_z="539.4358 : 422.19274 : 1"
       inkscape:persp3d-origin="270.93333 : 180.62222 : 1"
       id="perspective2653" />
  </defs>
  <g
     inkscape:groupmode="layer"
     id="layer3"
     inkscape:label="hanger"
     style="display:inline">
    <rect
       style="fill:#cccccc;stroke-width:0.93117"
       id="rect1911-6-3"
       width="6.0636811"
       height="119.0206"
       x="310.09674"
       y="-3.7779646"
       ry="3.4856625"
       transform="rotate(30)" />
    <rect
       style="fill:#cccccc;stroke-width:0.859089"
       id="rect1911-6-3-1"
       width="5.9816012"
       height="102.69778"
       x="-129.09468"
       y="256.05737"
       ry="3.0076294"
       transform="matrix(-0.91547208,0.40238149,0.60426386,0.79678428,0,0)" />
    <rect
       style="fill:#cccccc;stroke-width:0.416791"
       id="rect1911-8-49"
       width="3.1428075"
       height="46.006451"
       x="270.29822"
       y="110.67371"
       ry="1.5714037" />
  </g>
  <g
     inkscape:groupmode="layer"
     id="layer2"
     inkscape:label="beam"
     style="display:inline;fill:#999999">
    <rect
       style="fill:#999999;stroke-width:0.264583"
       id="rect1881"
       width="441.12909"
       height="9.786459"
       x="-3.6646922"
       y="290.92215"
       ry="4.8932295"
       transform="rotate(-10.827457)" />
    <rect
       style="fill:#cccccc;stroke-width:0.302937"
       id="rect1911"
       width="3.1428075"
       height="24.304546"
       x="110.86685"
       y="282.48276"
       ry="1.546906" />
    <rect
       style="fill:#cccccc;stroke-width:0.416791"
       id="rect1911-8"
       width="3.1428075"
       height="46.006451"
       x="353.8038"
       y="235.21849"
       ry="1.5714037" />
    <rect
       style="fill:#cccccc;stroke-width:0.312509"
       id="rect1911-8-4"
       width="3.1428075"
       height="25.864735"
       x="453.66187"
       y="215.44597"
       ry="1.5714037" />
    <rect
       style="fill:#cccccc;stroke-width:0.450112"
       id="rect1911-6"
       width="3.1428075"
       height="53.656776"
       x="212.61086"
       y="261.96884"
       ry="1.5714037" />
    <rect
       style="fill:#cccccc;stroke-width:0.240785"
       id="rect1911-6-8"
       width="3.1428075"
       height="15.354761"
       x="265.6322"
       y="253.68571"
       ry="1.5212224"
       rx="1.5714037" />
  </g>
  <g
     inkscape:label="chimes"
     inkscape:groupmode="layer"
     id="layer1"
     style="display:inline">
    <text
       xml:space="preserve"
       style="font-size:18.3178px;fill:#000000;stroke-width:0.19081"
       x="159.02921"
       y="277.98767"
       id="text561"><tspan
         sodipodi:role="line"
         id="tspan559"
         style="font-style:normal;font-variant:normal;font-weight:normal;font-stretch:normal;font-size:18.3178px;font-family:'Segoe UI';-inkscape-font-specification:'Segoe UI';stroke-width:0.19081"
         x="159.02921"
         y="277.98767" /></text>
    <g
       aria-label="C"
       id="text615-3"
       style="font-size:158.77px;font-family:'Segoe UI';-inkscape-font-specification:'Segoe UI';fill:#ffe680;stroke-width:0.826926"
       transform="translate(-12.585893,80.050816)">
      <path
         d="m 165.96335,330.48606 c -0.016,10.07265 -18.44241,14.59144 -30.69127,14.59144 -15.81498,0 -28.4773,-5.09077 -37.986963,-15.27231 -9.509661,-10.18154 -14.264492,-23.54158 -14.264492,-40.08012 0,-17.77893 5.349185,-32.14679 16.047554,-43.10357 10.698371,-10.95679 24.265141,-16.43518 40.700321,-16.43518 10.54332,0 19.27774,1.52465 26.20325,4.57394 v 5.7323 c 0.32322,5.82287 -16.74527,1.47747 -26.3583,1.47747 -12.76569,0 -23.12812,4.26384 -31.08729,12.79153 -7.90749,8.52769 -11.861238,19.92378 -11.861238,34.18827 0,13.54093 3.695328,24.34266 11.085988,32.4052 7.44235,8.01086 17.18458,12.01629 29.22671,12.01629 11.16351,0 20.82822,-2.48078 28.99413,-7.44235 z"
         id="path1146"
         sodipodi:nodetypes="csssssccscscscc" />
    </g>
    <g
       aria-label="h"
       id="text615-0-4"
       style="font-size:158.77px;font-family:'Segoe UI';-inkscape-font-specification:'Segoe UI';fill:#ffe680;stroke-width:0.826926"
       transform="translate(-10.731221,83.192955)">
      <path
         d="m 254.00306,311.55939 c 0,10.77119 -12.71401,8.24265 -12.71401,0.0542 v -37.60524 c 0,-16.53855 -6.15027,-24.80782 -18.45081,-24.80782 -6.20195,0 -11.42193,2.40326 -15.65993,7.20977 -4.238,4.75483 -6.35306,10.87926 -6.357,18.37329 l -0.0193,36.75839 c 0,9.45128 -12.69469,9.54781 -12.69469,0.12658 V 202.22079 h 12.71401 v 51.32116 h 0.3101 c 6.09859,-10.02649 14.78132,-15.03974 26.0482,-15.03974 17.8823,0 26.82345,10.7759 26.82345,32.32769 z"
         id="path1149"
         sodipodi:nodetypes="ccsscsccccccssc" />
    </g>
    <g
       aria-label="i"
       id="text615-0-1-54"
       style="font-size:158.77px;font-family:'Segoe UI';-inkscape-font-specification:'Segoe UI';fill:#ffe680;stroke-width:0.826926"
       transform="translate(-8.8561443,94.636709)">
      <path
         d="m 276.35873,197.22611 c -2.27405,0 -4.21216,-0.77525 -5.81433,-2.32574 -1.60217,-1.55049 -2.40325,-3.51444 -2.40325,-5.89185 0,-2.37742 -0.55425,-8.39329 1.04792,-9.94378 1.60217,-1.60216 4.89561,1.64867 7.16966,1.64867 2.32573,0 5.95191,-3.36464 7.55409,-1.76247 1.65385,1.55049 0.81855,7.68016 0.81855,10.05758 0,2.27405 -0.82693,4.21216 -2.48078,5.81433 -1.60217,1.60217 -3.56613,2.40326 -5.89186,2.40326 z m 6.20196,91.39161 c 0,7.08181 -12.71401,6.17531 -12.71401,-0.0129 v -71.22234 h 12.71401 z"
         id="path1152"
         sodipodi:nodetypes="ssscscscsccccc" />
    </g>
    <g
       aria-label="m"
       id="text615-0-1-5-4"
       style="font-size:158.77px;font-family:'Segoe UI';-inkscape-font-specification:'Segoe UI';fill:#ffe680;stroke-width:0.826926"
       transform="translate(-9.7992493,87.276773)">
      <path
         d="m 417.71425,257.95272 c 0,7.73512 -12.714,7.75356 -12.714,0 v -37.47591 c 0,-8.7861 -1.3696,-15.1431 -4.1088,-19.071 -2.68751,-3.92791 -7.23561,-5.89186 -13.64429,-5.89186 -5.42671,0 -10.05234,2.48078 -13.87688,7.44234 -3.77285,4.96157 -5.65928,10.90511 -5.65928,17.83062 v 37.08032 c 0,9.4341 -12.714,9.38783 -12.714,0.0109 v -38.95182 c 0,-15.60825 -6.02106,-23.41237 -18.06319,-23.41237 -5.58176,0 -10.18154,2.35157 -13.79935,7.05472 -3.61781,4.65147 -5.42671,10.72421 -5.42671,18.21824 v 37.12764 c 0,10.28497 -12.68239,10.58257 -12.714,-0.0284 v -71.20998 h 12.714 v 12.55895 h 0.3101 c 5.63344,-9.61303 13.85103,-14.41954 24.65277,-14.41954 5.42671,0 10.15569,1.52465 14.18696,4.57394 4.03127,2.99761 6.79631,6.95136 8.29512,11.86124 5.89185,-10.95679 14.67795,-16.43518 26.3583,-16.43518 17.46883,0 26.20325,10.77589 26.20325,32.32768 z"
         id="path1155"
         sodipodi:nodetypes="ccscscsccsscsccccccsccssc" />
    </g>
    <g
       aria-label="e"
       id="text615-0-1-5-5-3"
       style="font-size:158.77px;font-family:'Segoe UI';-inkscape-font-specification:'Segoe UI';fill:#ffe680;stroke-width:0.826926"
       transform="translate(-9.1732603,73.152035)">
      <path
         d="m 500.24336,206.97104 c 0.38713,13.69328 -56.05015,8.08451 -56.05015,8.08451 0.20673,8.83778 2.58415,15.65993 7.13225,20.46645 4.5481,4.80651 10.80174,7.20977 18.76091,7.20977 8.94115,0 17.15873,-2.94593 24.65276,-8.83779 v 3.94577 c 0.89966,10.77417 -16.20261,15.59039 -27.67622,15.59039 -11.21519,0 -20.02713,-3.59197 -26.43582,-10.7759 -6.40869,-7.23561 -9.61303,-17.39131 -9.61303,-30.46709 0,-12.35223 3.4886,-22.40456 10.4658,-30.157 7.02888,-7.80413 15.73745,-11.70619 26.12572,-11.70619 10.38827,0 18.42497,3.35939 24.1101,10.07818 5.68512,6.71878 8.52768,16.04755 8.52768,27.98631 z m -13.0241,-2.69138 c -0.0517,-7.33898 -1.83473,-13.04995 -5.34918,-17.1329 -3.46276,-4.08295 -8.29512,-6.12443 -14.49707,-6.12443 -5.99522,0 -11.08599,2.14484 -15.27231,6.43453 -4.18632,4.28968 -6.77047,9.89728 -7.75244,16.8228 z"
         id="path1158"
         sodipodi:nodetypes="ccssccscscssscccsscc" />
    </g>
    <g
       aria-label="C"
       id="text615"
       style="font-size:158.77px;font-family:'Segoe UI';-inkscape-font-specification:'Segoe UI';fill:#ffd42a;stroke-width:0.826926"
       transform="translate(-12.5964,71.896219)">
      <path
         d="m 165.97175,338.56545 c -8.21759,4.34137 -18.45081,6.51205 -30.69967,6.51205 -15.81498,0 -28.4773,-5.09077 -37.986963,-15.27231 -9.509661,-10.18154 -14.264492,-23.54158 -14.264492,-40.08012 0,-17.77893 5.349185,-32.14679 16.047554,-43.10357 10.698371,-10.95679 24.265141,-16.43518 40.700321,-16.43518 21.0697,0 26.20325,5.98461 26.20325,12.05057 v 6.40024 c -7.95917,-4.44473 -16.74527,-6.6671 -26.3583,-6.6671 -12.76569,0 -23.12812,4.26384 -31.08729,12.79153 -7.90749,8.52769 -11.861238,19.92378 -11.861238,34.18827 0,13.54093 3.695328,24.34266 11.085988,32.4052 7.44235,8.01086 10.50322,9.70675 22.54535,9.70675 11.16351,0 35.67549,-9.21335 35.67549,3.07942 z"
         id="path1409"
         sodipodi:nodetypes="csssssccscscscc" />
    </g>
    <g
       aria-label="h"
       id="text615-0"
       style="font-size:158.77px;font-family:'Segoe UI';-inkscape-font-specification:'Segoe UI';fill:#ffd42a;stroke-width:0.826926"
       transform="translate(-10.741728,75.038358)">
      <path
         d="m 254.00306,319.7478 h -12.71401 v -45.7394 c 0,-16.53855 -6.15027,-24.80782 -18.45081,-24.80782 -6.20195,0 -11.42193,2.40326 -15.65993,7.20977 -4.238,4.75483 -6.357,10.87926 -6.357,18.37329 V 319.7478 H 188.1073 V 210.64702 c 0.002,-9.57182 12.69414,-9.95884 12.71401,0 v 42.89493 h 0.3101 c 6.09859,-10.02649 14.78132,-15.03974 26.0482,-15.03974 17.8823,0 26.82345,10.7759 26.82345,32.32769 z"
         id="path1412"
         sodipodi:nodetypes="ccsscsccccccssc" />
    </g>
    <g
       aria-label="i"
       id="text615-0-1"
       style="font-size:158.77px;font-family:'Segoe UI';-inkscape-font-specification:'Segoe UI';fill:#ffd42a;stroke-width:0.826926"
       transform="translate(-8.8666513,86.482112)">
      <path
         d="m 276.35873,197.22611 q -3.41107,0 -5.81433,-2.32574 -2.40325,-2.32573 -2.40325,-5.89185 0,-3.56613 2.40325,-5.89186 2.40326,-2.40325 5.81433,-2.40325 3.4886,0 5.89186,2.40325 2.48078,2.32573 2.48078,5.89186 0,3.41107 -2.48078,5.81433 -2.40326,2.40326 -5.89186,2.40326 z m 6.20196,99.54135 h -12.71401 v -79.38501 h 12.71401 z"
         id="path1415" />
    </g>
    <g
       aria-label="m"
       id="text615-0-1-5"
       style="font-size:158.77px;font-family:'Segoe UI';-inkscape-font-specification:'Segoe UI';fill:#ffd42a;stroke-width:0.826926"
       transform="translate(-12.523318,63.755943)">
      <path
         d="m 420.42781,281.4274 h -12.714 v -45.58436 c 0,-8.7861 -1.3696,-15.1431 -4.1088,-19.071 -2.68751,-3.92791 -7.23561,-5.89186 -13.64429,-5.89186 -5.42671,0 -10.05234,2.48078 -13.87688,7.44234 -3.77285,4.96157 -5.65928,10.90511 -5.65928,17.83062 v 45.27426 h -12.714 v -47.13485 c 0,-15.60825 -6.02106,-23.41237 -18.06319,-23.41237 -5.58176,0 -10.18154,2.35157 -13.79935,7.05472 -3.61781,4.65147 -5.42671,10.72421 -5.42671,18.21824 v 45.27426 h -12.714 v -74.79045 c -0.1477,-8.24611 12.63171,-9.08373 12.714,0 v 7.9644 h 0.3101 c 5.63344,-9.61303 13.85103,-14.41954 24.65277,-14.41954 5.42671,0 10.15569,1.52465 14.18696,4.57394 4.03127,2.99761 6.79631,6.95136 8.29512,11.86124 5.89185,-10.95679 14.67795,-16.43518 26.3583,-16.43518 17.46883,0 26.20325,10.77589 26.20325,32.32768 z"
         id="path1418"
         sodipodi:nodetypes="ccscscsccsscsccccccsccssc" />
    </g>
    <g
       aria-label="e"
       id="text615-0-1-5-5"
       style="font-size:158.77px;font-family:'Segoe UI';-inkscape-font-specification:'Segoe UI';fill:#ffd42a;stroke-width:0.826926"
       transform="translate(-9.8097563,79.122176)">
      <path
         d="M 500.86935,200.93081 H 444.8192 c 0.20673,8.83778 2.58415,15.65993 7.13225,20.46645 4.5481,4.80651 10.80174,7.20977 18.76091,7.20977 8.94115,0 24.65276,-12.75684 24.65276,-0.58407 v 3.68504 c -6.9772,5.06493 -16.20261,7.5974 -27.67622,7.5974 -11.21519,0 -20.02713,-3.59197 -26.43582,-10.7759 -6.40869,-7.23561 -9.61303,-17.39131 -9.61303,-30.46709 0,-12.35223 3.4886,-22.40456 10.4658,-30.157 7.02888,-7.80413 15.73745,-11.70619 26.12572,-11.70619 10.38827,0 18.42497,3.35939 24.1101,10.07818 5.68512,6.71878 8.52768,16.04755 8.52768,27.98631 z m -13.0241,-10.77589 c -0.0517,-7.33898 -1.83473,-13.04995 -5.34918,-17.1329 -3.46276,-4.08295 -8.29512,-6.12443 -14.49707,-6.12443 -5.99522,0 -11.08599,2.14484 -15.27231,6.43453 -4.18632,4.28968 -6.77047,9.89728 -7.75244,16.8228 z"
         id="path1421"
         sodipodi:nodetypes="ccssccscscssscccsscc" />
    </g>
  </g>
</svg>
